<svg xmlns="http://www.w3.org/2000/svg" xmlns:xlink="http://www.w3.org/1999/xlink" width="128" zoomAndPan="magnify" viewBox="0 0 96 95.999999" height="128" preserveAspectRatio="xMidYMid meet" version="1.0"><defs><g/></defs><g fill="#055b49" fill-opacity="1"><g transform="translate(7.76836, 58.29195)"><g><path d="M 1.648438 -25.359375 C 0.925781 -25.359375 0.402344 -24.753906 0.402344 -24.113281 L 0.402344 -20.328125 C 0.402344 -19.484375 0.886719 -19.121094 1.609375 -19.121094 C 1.933594 -19.121094 2.292969 -19.28125 2.496094 -19.601562 C 3.421875 -21.816406 4.789062 -22.703125 7.808594 -22.742188 L 7.808594 -4.386719 C 7.808594 -3.019531 7.40625 -2.535156 6.078125 -2.09375 C 5.796875 -1.890625 5.636719 -1.570312 5.636719 -1.207031 C 5.636719 -0.484375 6.039062 0 6.84375 0 L 13.765625 0 C 14.613281 0 14.972656 -0.484375 14.972656 -1.207031 C 14.972656 -1.570312 14.8125 -1.890625 14.570312 -2.09375 C 13.203125 -2.535156 12.839844 -3.019531 12.839844 -4.386719 L 12.839844 -22.742188 C 15.859375 -22.703125 17.1875 -21.816406 18.113281 -19.601562 C 18.355469 -19.28125 18.675781 -19.121094 19.039062 -19.121094 C 19.765625 -19.121094 20.207031 -19.484375 20.207031 -20.328125 L 20.207031 -24.113281 C 20.207031 -24.753906 19.722656 -25.359375 18.960938 -25.359375 Z M 1.648438 -25.359375 "/></g></g></g><g fill="#055b49" fill-opacity="1"><g transform="translate(26.928733, 58.29195)"><g><path d="M 10.585938 0.320312 C 16.703125 0.320312 19.683594 -3.140625 19.683594 -9.097656 C 19.683594 -15.09375 16.703125 -18.515625 10.585938 -18.515625 C 4.507812 -18.515625 1.53125 -15.09375 1.53125 -9.097656 C 1.53125 -3.140625 4.507812 0.320312 10.585938 0.320312 Z M 10.585938 -2.054688 C 7.730469 -2.054688 6.320312 -4.066406 6.320312 -9.097656 C 6.320312 -14.128906 7.730469 -16.101562 10.585938 -16.101562 C 13.484375 -16.101562 14.894531 -14.128906 14.894531 -9.097656 C 14.894531 -4.066406 13.484375 -2.054688 10.585938 -2.054688 Z M 10.585938 -2.054688 "/></g></g></g><g fill="#055b49" fill-opacity="1"><g transform="translate(46.692903, 58.29195)"><g><path d="M 20.527344 -2.09375 C 19.160156 -2.535156 18.796875 -3.019531 18.796875 -4.46875 L 18.796875 -26.285156 C 18.796875 -27.128906 18.394531 -27.53125 17.550781 -27.53125 C 17.347656 -27.53125 17.1875 -27.492188 17.027344 -27.453125 L 12.640625 -26.164062 C 12.238281 -26.003906 11.835938 -25.640625 11.835938 -25.078125 C 11.835938 -24.59375 11.957031 -24.3125 12.316406 -24.070312 C 13.644531 -23.75 14.007812 -23.265625 14.007812 -21.976562 L 14.007812 -15.578125 C 12.921875 -17.511719 11.109375 -18.476562 8.453125 -18.476562 C 3.703125 -18.476562 1.53125 -15.457031 1.53125 -9.058594 C 1.53125 -2.65625 3.90625 0.363281 8.453125 0.363281 C 11.070312 0.363281 12.882812 -0.605469 14.007812 -2.617188 L 14.007812 -2.414062 C 14.007812 -1.085938 15.054688 0 16.421875 0 L 19.765625 0 C 20.570312 0 20.929688 -0.484375 20.929688 -1.207031 C 20.929688 -1.570312 20.8125 -1.890625 20.527344 -2.09375 Z M 10.144531 -2.054688 C 7.566406 -2.054688 6.320312 -4.308594 6.320312 -9.058594 C 6.320312 -13.808594 7.367188 -16.0625 10.144531 -16.0625 C 12.882812 -16.0625 14.007812 -13.6875 14.007812 -9.257812 L 14.007812 -8.894531 C 14.007812 -4.429688 12.597656 -2.054688 10.144531 -2.054688 Z M 10.144531 -2.054688 "/></g></g></g><g fill="#055b49" fill-opacity="1"><g transform="translate(67.020612, 58.29195)"><g><path d="M 10.585938 0.320312 C 16.703125 0.320312 19.683594 -3.140625 19.683594 -9.097656 C 19.683594 -15.09375 16.703125 -18.515625 10.585938 -18.515625 C 4.507812 -18.515625 1.53125 -15.09375 1.53125 -9.097656 C 1.53125 -3.140625 4.507812 0.320312 10.585938 0.320312 Z M 10.585938 -2.054688 C 7.730469 -2.054688 6.320312 -4.066406 6.320312 -9.097656 C 6.320312 -14.128906 7.730469 -16.101562 10.585938 -16.101562 C 13.484375 -16.101562 14.894531 -14.128906 14.894531 -9.097656 C 14.894531 -4.066406 13.484375 -2.054688 10.585938 -2.054688 Z M 10.585938 -2.054688 "/></g></g></g></svg>